<svg xmlns="http://www.w3.org/2000/svg" width="400" height="400" viewBox="0 0 400 400">
  <defs>
    <filter id="blur" x="0" y="0">
      <feGaussianBlur stdDeviation="3" />
    </filter>
  </defs>
  
  <!-- Small particles -->
  <g fill="#ffffff" opacity="0.4" filter="url(#blur)">
    <circle cx="30" cy="30" r="1" />
    <circle cx="60" cy="40" r="1.2" />
    <circle cx="90" cy="60" r="0.8" />
    <circle cx="120" cy="30" r="1.4" />
    <circle cx="150" cy="70" r="1" />
    <circle cx="180" cy="20" r="1.1" />
    <circle cx="210" cy="50" r="0.7" />
    <circle cx="240" cy="80" r="1.3" />
    <circle cx="270" cy="30" r="0.9" />
    <circle cx="300" cy="60" r="1" />
    <circle cx="330" cy="40" r="1.2" />
    <circle cx="360" cy="70" r="0.8" />
    
    <circle cx="40" cy="100" r="1" />
    <circle cx="70" cy="130" r="1.2" />
    <circle cx="100" cy="110" r="0.8" />
    <circle cx="130" cy="140" r="1.4" />
    <circle cx="160" cy="120" r="1" />
    <circle cx="190" cy="150" r="1.1" />
    <circle cx="220" cy="130" r="0.7" />
    <circle cx="250" cy="110" r="1.3" />
    <circle cx="280" cy="140" r="0.9" />
    <circle cx="310" cy="120" r="1" />
    <circle cx="340" cy="150" r="1.2" />
    <circle cx="370" cy="130" r="0.8" />
    
    <circle cx="20" cy="180" r="1" />
    <circle cx="50" cy="210" r="1.2" />
    <circle cx="80" cy="190" r="0.8" />
    <circle cx="110" cy="220" r="1.4" />
    <circle cx="140" cy="200" r="1" />
    <circle cx="170" cy="230" r="1.1" />
    <circle cx="200" cy="210" r="0.7" />
    <circle cx="230" cy="190" r="1.3" />
    <circle cx="260" cy="220" r="0.9" />
    <circle cx="290" cy="200" r="1" />
    <circle cx="320" cy="230" r="1.2" />
    <circle cx="350" cy="210" r="0.8" />
    
    <circle cx="30" cy="260" r="1" />
    <circle cx="60" cy="290" r="1.2" />
    <circle cx="90" cy="270" r="0.8" />
    <circle cx="120" cy="300" r="1.4" />
    <circle cx="150" cy="280" r="1" />
    <circle cx="180" cy="310" r="1.1" />
    <circle cx="210" cy="290" r="0.7" />
    <circle cx="240" cy="270" r="1.3" />
    <circle cx="270" cy="300" r="0.9" />
    <circle cx="300" cy="280" r="1" />
    <circle cx="330" cy="310" r="1.2" />
    <circle cx="360" cy="290" r="0.8" />
    
    <circle cx="40" cy="340" r="1" />
    <circle cx="70" cy="370" r="1.2" />
    <circle cx="100" cy="350" r="0.8" />
    <circle cx="130" cy="380" r="1.4" />
    <circle cx="160" cy="360" r="1" />
    <circle cx="190" cy="390" r="1.1" />
    <circle cx="220" cy="370" r="0.7" />
    <circle cx="250" cy="350" r="1.3" />
    <circle cx="280" cy="380" r="0.9" />
    <circle cx="310" cy="360" r="1" />
    <circle cx="340" cy="390" r="1.2" />
    <circle cx="370" cy="370" r="0.8" />
  </g>
  
  <!-- Large stars -->
  <g fill="#ffffff" opacity="0.6" filter="url(#blur)">
    <circle cx="50" cy="50" r="1.8" />
    <circle cx="150" cy="100" r="2" />
    <circle cx="250" cy="50" r="1.7" />
    <circle cx="350" cy="100" r="1.9" />
    <circle cx="100" cy="200" r="2.1" />
    <circle cx="200" cy="150" r="1.8" />
    <circle cx="300" cy="200" r="2" />
    <circle cx="50" cy="300" r="1.7" />
    <circle cx="150" cy="250" r="1.9" />
    <circle cx="250" cy="300" r="2.1" />
    <circle cx="350" cy="250" r="1.8" />
    <circle cx="100" cy="350" r="2" />
    <circle cx="300" cy="350" r="1.7" />
  </g>
</svg> 