<?xml version="1.0" encoding="UTF-8"?>
<svg id="Layer_2" data-name="Layer 2" xmlns="http://www.w3.org/2000/svg" viewBox="0 0 769.63 181.68">
  <g id="logos">
    <g>
      <g>
        <path d="M729.97,141.93h-17.83l-21.96-68.29-21.94,68.29h-17.84l30.87-96.04h17.84l30.87,96.04Z"/>
        <path d="M731.91,141.93V45.89h16.45v96.04h-16.45Z"/>
      </g>
      <g>
        <path d="M437.06,97.64c-10.89,12-23.34,26.61-39.96,28.61-16.82,2.02-32.17-9.45-35.19-25.88l-.08-.5c-.39-2-.61-4.07-.61-6.21,0-17.62,14.27-31.92,31.92-31.92,4.82,0,9.37,1.05,13.47,2.99,3.32,1.52,6.34,3.63,8.95,6.21l10.61-11.19c-4.02-3.8-8.59-6.82-13.52-9.01-7.79-3.44-16.43-4.79-25.08-3.74-26.24,3.16-44.97,27.02-41.81,53.26,2.74,22.75,20.98,39.85,42.87,41.98,3.38.3,6.87.28,10.39-.14,16.4-1.92,27.08-11.58,38.05-22.48v21.31h15.6V49.91h-15.6v47.73Z"/>
        <path d="M530.21,80.47c0-18.66-13.85-30.55-27.3-30.55h-37.71v91.01h15.6v-29.9h22.1c.89,0,1.78-.05,2.67-.15l10.33,30.05h16.9l-12.64-36.78c1.94-1.77,10.04-10.09,10.04-23.68ZM502.91,98.02h-22.1v-35.11h22.1c6.46,0,11.7,7.86,11.7,17.55s-5.24,17.55-11.7,17.55Z"/>
        <path d="M585.97,48.61c-25.85,0-46.8,20.96-46.8,46.81s20.96,46.8,46.8,46.8,46.81-20.96,46.81-46.8-20.96-46.81-46.81-46.81ZM585.97,126.62c-17.23,0-31.2-13.97-31.2-31.2s13.97-31.21,31.2-31.21,31.21,13.97,31.21,31.21-13.97,31.2-31.21,31.2Z"/>
      </g>
      <g>
        <path d="M754.47,38.08v7.81h-1.56v-7.81h-3.9v-1.56h9.38v1.56h-3.91Z"/>
        <path d="M761.82,39.18v6.71h-1.56v-9.38h1.1l3.59,3.59,3.59-3.59h1.1v9.38h-1.56v-6.71l-3.13,3.13-3.12-3.13Z"/>
      </g>
      <g>
        <path d="M181.23,127.31l.6-.63.07-.07,17.65-18.45,3.6-3.77h-.01l.03-.04c1.01-1.02,1.87-2.18,2.55-3.45l.02-.04c.22-.41.43-.84.61-1.28l.06-.17c.16-.39.32-.8.44-1.21.04-.12.07-.25.1-.37.1-.35.2-.71.28-1.07.05-.23.07-.47.1-.71s.09-.48.12-.72c.05-.53.08-1.07.08-1.61,0-5.39-2.83-10.13-7.07-12.84-2.36-1.5-5.15-2.38-8.15-2.38-3.86,0-7.37,1.46-10.06,3.83-.31.27-.6.55-.89.84v-.03l-3.82,4-8.1,8.46-.88.93-7.78,8.14-.66.69-17.14,17.94-.74.77-4.69,4.91-.67.69-2.49,2.62c-.71.56-1.42,1.12-2.15,1.67-1.08.94-2.21,1.84-3.37,2.71-4.81,3.61-10.19,6.52-16,8.57-2,.7-4.05,1.3-6.14,1.79-.56.13-1.12.26-1.69.37-1.96.41-3.94.72-5.97.94-2.13.22-4.3.35-6.49.35-.15,0-.31,0-.45,0-.44,0-.86-.02-1.3-.03-12.35-.35-23.77-4.37-33.14-10.97-.27-.18-.54-.37-.8-.55-2.83-2.06-5.45-4.37-7.86-6.87-.22-.23-.44-.46-.66-.69-9.54-10.26-15.35-23.85-15.35-38.72,0-13.06,4.48-25.12,12.03-34.82,3.17-4.07,6.89-7.72,11.05-10.85.26-.19.51-.39.77-.59,5.59-4.09,11.96-7.23,18.83-9.2,4.87-1.4,9.99-2.21,15.29-2.34.43,0,.86-.03,1.3-.03.11,0,.2,0,.3,0,13.05,0,25.12,4.11,34.94,11.05.9.64,2.13.49,2.89-.3l17.27-18.06,1.36-1.42c.9-.94.81-2.45-.19-3.29-.75-.63-1.52-1.25-2.29-1.85C131.16,7.15,111.82,0,90.85,0c-9.17,0-18.04,1.37-26.39,3.92-.34.11-.69.21-1.03.32-10.97,3.47-21.05,8.99-29.78,16.08-.25.2-.5.4-.75.61C12.82,37.6,0,62.75,0,90.84c0,24.36,9.65,46.5,25.31,62.84.22.23.45.46.67.69,2.43,2.48,5,4.83,7.71,7.02.25.2.5.4.75.6,1.82,1.45,3.7,2.84,5.64,4.15,7.09,4.8,14.9,8.62,23.23,11.28l.04-.05c.34.12.67.24,1.01.35.91.29,1.82.56,2.74.82,2.2.6,4.42,1.11,6.69,1.54.37.08.75.14,1.12.21,3.61.64,7.28,1.07,11.03,1.27.42.03.84.04,1.28.06,1.2.05,2.42.08,3.64.08,23.26,0,44.52-8.8,60.61-23.23l6.46-6.77.66-.69.1-.11.67-.69,1.79-1.88,5.53-5.79,14.49-15.15.07-.07Z"/>
        <path d="M291.34,28c-.22-.23-.45-.46-.67-.69-2.43-2.48-5-4.83-7.71-7.02-.25-.2-.5-.4-.75-.6-1.82-1.45-3.7-2.84-5.64-4.15-7.09-4.8-14.9-8.62-23.23-11.28l-.04.05c-.34-.12-.67-.24-1.01-.35-.91-.29-1.82-.56-2.74-.82-2.2-.6-4.42-1.11-6.69-1.54-.37-.08-.75-.14-1.12-.21-3.61-.64-7.28-1.07-11.03-1.27-.42-.03-.84-.04-1.28-.06-1.2-.05-2.42-.08-3.64-.08-23.26,0-44.52,8.8-60.61,23.23l-6.46,6.77-.66.69-.1.11-.67.69-1.79,1.88-5.53,5.79-14.49,15.15-.07.07-.6.63-.07.07-17.65,18.45-5.91,6.25h.01l-.03.04c-1.01,1.02-1.87,2.18-2.55,3.45l-.02.04c-.22.41-.43.84-.61,1.28l-.06.17c-.16.39-.32.8-.44,1.21-.04.12-.07.25-.1.37-.1.35-.2.71-.28,1.07-.05.23-.07.47-.1.71-.05.26-.1.52-.12.79-.05.51-.08,1.03-.08,1.54,0,3.72,1.35,7.13,3.57,9.77h0s.02.02.02.02c.4.48.84.93,1.3,1.36l17.87,18.71,21.11-22.07-7.57-7.87,4.1-4.29.88-.93,7.78-8.14.66-.69,17.14-17.94.74-.77,4.69-4.91.67-.69,2.49-2.62c.71-.56,1.42-1.12,2.15-1.67,1.08-.94,2.21-1.84,3.37-2.71,4.81-3.61,10.19-6.52,16-8.57,2-.7,4.05-1.3,6.14-1.79.56-.13,1.12-.26,1.69-.37,1.96-.41,3.94-.72,5.97-.94,2.13-.22,4.3-.35,6.49-.35.15,0,.31,0,.45,0,.44,0,.86.02,1.3.03,12.35.35,23.77,4.37,33.14,10.97.27.18.54.37.8.55,2.83,2.06,5.45,4.37,7.86,6.87.22.23.44.46.66.69,9.54,10.26,15.35,23.85,15.35,38.72,0,13.06-4.48,25.12-12.03,34.82-3.17,4.07-6.89,7.72-11.05,10.85-.26.19-.51.39-.77.59-5.59,4.09-11.96,7.23-18.83,9.2-4.87,1.4-9.99,2.21-15.29,2.34-.43,0-.86.03-1.3.03-.11,0-.2,0-.3,0-13.73,0-26.39-4.55-36.48-12.17l-18.63,19.48-3,3.15c1.34,1.17,2.72,2.31,4.13,3.42,15.39,11.98,34.73,19.13,55.7,19.13,9.17,0,18.04-1.37,26.39-3.92.34-.11.69-.21,1.03-.32,10.97-3.47,21.05-8.99,29.78-16.08.25-.2.5-.4.75-.61,20.09-16.67,32.91-41.82,32.91-69.91,0-24.36-9.65-46.5-25.31-62.84Z"/>
      </g>
    </g>
  </g>
</svg>