<?xml version="1.0" encoding="UTF-8"?>
<svg id="Layer_2" data-name="Layer 2" xmlns="http://www.w3.org/2000/svg" xmlns:xlink="http://www.w3.org/1999/xlink" viewBox="0 0 348.22 82.2">
  <defs>
    <style>
      .cls-1 {
        fill: url(#Degradado_sin_nombre_4-2);
      }

      .cls-2 {
        fill: url(#Degradado_sin_nombre_4);
      }
    </style>
    <linearGradient id="Degradado_sin_nombre_4" data-name="Degradado sin nombre 4" x1="46.95" y1="0" x2="46.95" y2="82.2" gradientUnits="userSpaceOnUse">
      <stop offset="0" stop-color="#364f9d"/>
      <stop offset=".87" stop-color="#1a1c3a"/>
    </linearGradient>
    <linearGradient id="Degradado_sin_nombre_4-2" data-name="Degradado sin nombre 4" x1="95.8" x2="95.8" xlink:href="#Degradado_sin_nombre_4"/>
  </defs>
  <g id="logos">
    <g>
      <g>
        <path d="M330.27,64.22h-8.07l-9.94-30.9-9.93,30.9h-8.07l13.97-43.45h8.07l13.97,43.45Z"/>
        <path d="M331.15,64.22V20.76h7.44v43.45h-7.44Z"/>
      </g>
      <g>
        <path d="M197.75,44.18c-4.93,5.43-10.56,12.04-18.08,12.94-7.61.92-14.56-4.28-15.92-11.71l-.04-.23c-.18-.9-.28-1.84-.28-2.81,0-7.97,6.46-14.44,14.44-14.44,2.18,0,4.24.48,6.09,1.35,1.5.69,2.87,1.64,4.05,2.81l4.8-5.07c-1.82-1.72-3.89-3.08-6.12-4.07-3.52-1.55-7.43-2.17-11.35-1.69-11.87,1.43-20.35,12.22-18.92,24.1,1.24,10.29,9.49,18.03,19.39,18.99,1.53.14,3.11.13,4.7-.06,7.42-.87,12.25-5.24,17.21-10.17v9.64h7.06V22.58h-7.06v21.59Z"/>
        <path d="M239.89,36.41c0-8.44-6.27-13.82-12.35-13.82h-17.06v41.18h7.06v-13.53h10c.4,0,.81-.02,1.21-.07l4.67,13.6h7.65l-5.72-16.64c.88-.8,4.54-4.56,4.54-10.71ZM227.54,44.35h-10v-15.88h10c2.92,0,5.29,3.56,5.29,7.94s-2.37,7.94-5.29,7.94Z"/>
        <path d="M265.12,21.99c-11.7,0-21.18,9.48-21.18,21.18s9.48,21.18,21.18,21.18,21.18-9.48,21.18-21.18-9.48-21.18-21.18-21.18ZM265.12,57.29c-7.8,0-14.12-6.32-14.12-14.12s6.32-14.12,14.12-14.12,14.12,6.32,14.12,14.12-6.32,14.12-14.12,14.12Z"/>
      </g>
      <g>
        <path d="M341.36,17.23v3.53h-.71v-3.53h-1.77v-.71h4.24v.71h-1.77Z"/>
        <path d="M344.69,17.73v3.04h-.71v-4.24h.5l1.62,1.62,1.62-1.62h.5v4.24h-.71v-3.04l-1.41,1.41-1.41-1.41Z"/>
      </g>
      <g>
        <path class="cls-2" d="M82,57.6l.27-.29.03-.03,7.99-8.35,1.63-1.71h0v-.02c.47-.46.86-.99,1.17-1.56v-.02c.11-.19.2-.38.29-.58l.03-.08c.07-.18.14-.36.2-.55.02-.06.03-.11.04-.17.05-.16.09-.32.13-.49.02-.1.03-.21.05-.32s.04-.22.05-.33c.02-.24.04-.48.04-.73,0-2.44-1.28-4.59-3.2-5.81-1.07-.68-2.33-1.08-3.69-1.08-1.75,0-3.33.66-4.55,1.73-.14.12-.27.25-.4.38h0s-1.73,1.8-1.73,1.8l-3.66,3.83-.4.42-3.52,3.68-.3.31-7.75,8.12-.33.35-2.12,2.22-.3.31-1.13,1.19c-.32.25-.64.51-.97.76-.49.43-1,.83-1.52,1.22-2.18,1.63-4.61,2.95-7.24,3.88-.9.32-1.83.59-2.78.81-.25.06-.51.12-.76.17-.89.19-1.78.33-2.7.43-.96.1-1.95.16-2.94.16-.07,0-.14,0-.2,0-.2,0-.39,0-.59-.01-5.59-.16-10.76-1.98-14.99-4.96-.12-.08-.24-.17-.36-.25-1.28-.93-2.47-1.98-3.56-3.11-.1-.1-.2-.21-.3-.31-4.32-4.64-6.95-10.79-6.95-17.52,0-5.91,2.03-11.37,5.44-15.75,1.43-1.84,3.12-3.49,5-4.91.12-.09.23-.18.35-.26,2.53-1.85,5.41-3.27,8.52-4.16,2.2-.63,4.52-1,6.92-1.06.2,0,.39-.01.59-.01.05,0,.09,0,.13,0,5.9,0,11.37,1.86,15.81,5,.41.29.97.22,1.31-.14l7.81-8.17.62-.64c.41-.43.37-1.11-.09-1.49-.34-.28-.69-.56-1.04-.84C59.34,3.23,50.59,0,41.11,0c-4.15,0-8.16.62-11.94,1.77-.16.05-.31.1-.46.14-4.96,1.57-9.52,4.07-13.47,7.28-.11.09-.23.18-.34.28C5.8,17.01,0,28.39,0,41.1c0,11.02,4.36,21.04,11.45,28.43.1.1.2.21.3.31,1.1,1.12,2.26,2.18,3.49,3.17.11.09.23.18.34.27.82.66,1.68,1.29,2.55,1.88,3.21,2.17,6.74,3.9,10.51,5.1l.02-.02c.15.05.3.11.46.16.41.13.83.25,1.24.37.99.27,2,.5,3.03.7.17.03.34.07.51.1,1.63.29,3.3.48,4.99.57.19.01.38.02.58.03.54.02,1.09.03,1.65.03,10.53,0,20.14-3.98,27.42-10.51l2.92-3.06.3-.31.04-.05.3-.31.81-.85,2.5-2.62,6.56-6.86.03-.03Z"/>
        <path class="cls-1" d="M131.82,12.67c-.1-.1-.2-.21-.3-.31-1.1-1.12-2.26-2.18-3.49-3.17-.11-.09-.23-.18-.34-.27-.82-.66-1.68-1.29-2.55-1.88-3.21-2.17-6.74-3.9-10.51-5.1l-.02.02c-.15-.05-.3-.11-.46-.16-.41-.13-.83-.25-1.24-.37-.99-.27-2-.5-3.03-.7-.17-.03-.34-.07-.51-.1-1.63-.29-3.3-.48-4.99-.57-.19-.01-.38-.02-.58-.03-.54-.02-1.09-.03-1.65-.03-10.53,0-20.14,3.98-27.42,10.51l-2.92,3.06-.3.31-.04.05-.3.31-.81.85-2.5,2.62-6.56,6.86-.03.03-.27.29-.03.03-7.99,8.35-2.67,2.83h0v.02c-.47.46-.86.99-1.17,1.56v.02c-.11.19-.2.38-.29.58l-.03.08c-.07.18-.14.36-.2.55-.02.06-.03.11-.04.17-.05.16-.09.32-.13.49-.02.1-.03.21-.05.32-.02.12-.04.23-.06.36-.02.23-.03.46-.03.7,0,1.68.61,3.22,1.62,4.42h0s0,0,0,0c.18.22.38.42.59.62l8.08,8.47,9.55-9.98-3.42-3.56,1.86-1.94.4-.42,3.52-3.68.3-.31,7.75-8.12.33-.35,2.12-2.22.3-.31,1.13-1.19c.32-.25.64-.51.97-.76.49-.43,1-.83,1.52-1.22,2.18-1.63,4.61-2.95,7.24-3.88.9-.32,1.83-.59,2.78-.81.25-.06.51-.12.76-.17.89-.19,1.78-.33,2.7-.43.96-.1,1.95-.16,2.94-.16.07,0,.14,0,.2,0,.2,0,.39,0,.59.01,5.59.16,10.76,1.98,14.99,4.96.12.08.24.17.36.25,1.28.93,2.47,1.98,3.56,3.11.1.1.2.21.3.31,4.32,4.64,6.95,10.79,6.95,17.52,0,5.91-2.03,11.37-5.44,15.75-1.43,1.84-3.12,3.49-5,4.91-.12.09-.23.18-.35.26-2.53,1.85-5.41,3.27-8.52,4.16-2.2.63-4.52,1-6.92,1.06-.2,0-.39.01-.59.01-.05,0-.09,0-.13,0-6.21,0-11.94-2.06-16.5-5.51l-8.43,8.81-1.36,1.42c.61.53,1.23,1.05,1.87,1.55,6.96,5.42,15.71,8.65,25.2,8.65,4.15,0,8.16-.62,11.94-1.77.16-.05.31-.1.46-.14,4.96-1.57,9.52-4.07,13.47-7.28.11-.09.23-.18.34-.28,9.09-7.54,14.89-18.92,14.89-31.63,0-11.02-4.36-21.04-11.45-28.43Z"/>
      </g>
    </g>
  </g>
</svg>